inDegrees=yes
name=ik_Xsens_quaternion
DataType=double
version=3
OpenSimVersion=4.4-2022-07-23-0e9fedc
endheader
time	pelvis_tilt	pelvis_list	pelvis_rotation	pelvis_tx	pelvis_ty	pelvis_tz	hip_flexion_r	hip_adduction_r	hip_rotation_r	knee_angle_r	knee_angle_r_beta	ankle_angle_r	subtalar_angle_r	mtp_angle_r	hip_flexion_l	hip_adduction_l	hip_rotation_l	knee_angle_l	knee_angle_l_beta	ankle_angle_l	subtalar_angle_l	mtp_angle_l	lumbar_extension	lumbar_bending	lumbar_rotation	arm_flex_r	arm_add_r	arm_rot_r	elbow_flex_r	pro_sup_r	wrist_flex_r	wrist_dev_r	arm_flex_l	arm_add_l	arm_rot_l	elbow_flex_l	pro_sup_l	wrist_flex_l	wrist_dev_l
30.25	-8.020809977001271e-300	6.728343073955268e-293	2.005202494250318e-300	2.293588668833511e-297	0.93	-3.669741870133617e-296	4.594144125593695e-49	1.314129506631888e-295	0	2.426570649309934e-20	5.541924823142104e-23	-4.205214421222042e-294	1.314129506631888e-295	8.612279134662742e-291	4.594144125593695e-49	-3.824620235920558e-306	-6.728343073955268e-293	2.426570649309934e-20	5.929815528861166e-24	2.628259013263776e-295	3.444911653865097e-290	-4.306139567331371e-291	-8.020809977001271e-300	-2.102607210611021e-294	-6.570647533159441e-296	-558774.0687589819	-2755860.847003559	156379.1912199231	-927048.9660589766	-851929.7626029006	-4.205214421222042e-294	1.682085768488817e-293	241965.1222995809	-1779084.564981963	4653733.077751979	573098.5238831438	1297460.235435523	-2.102607210611021e-294	-8.410428842444084e-294
30.26666666666667	-2.898732550715178e-319	2.431628059336547e-312	7.246954893199404e-320	8.289046058458095e-317	0.93	-1.326247369353295e-315	4.594144125593695e-49	4.749273554482112e-315	0	2.426570649309934e-20	-1.039235834302789e-22	-1.51976753708843e-313	4.749273554482112e-315	3.112483915950978e-310	4.594144125593695e-49	0	-2.431628059336547e-312	2.426570649309934e-20	5.834522068073618e-23	9.498547108964225e-315	1.244993566380391e-309	-1.556241957975489e-310	-2.898732550715178e-319	-7.598837685195117e-314	-2.374636774770728e-315	-558774.0545330698	-2755860.842811949	156379.1765747528	-927048.9616243659	-851929.7507394904	-1.51976753708843e-313	6.07907014835372e-313	241965.13347128	-1779084.558620617	4653733.084975928	573098.5385356463	1297460.20198183	-7.598837685195117e-314	-3.03953507417686e-313
30.28333333333333	0	0	0	0	0.93	0	4.594144125593695e-49	0	0	2.426570649309934e-20	-1.039235834302789e-22	0	0	0	4.594144125593695e-49	0	0	2.426570649309934e-20	5.834522068073618e-23	0	0	0	0	0	0	-558774.0401902982	-2755860.859179481	156379.1672354508	-927048.9528669338	-851929.7429038764	0	0	241965.1103781443	-1779084.546615334	4653733.13125998	573098.5815031145	1297460.179869409	0	0
30.3	0	0	0	0	0.93	0	0	0	0	0	3.526483052466863e-38	0	0	0	0	0	0	0	-1.175494350822288e-38	0	0	0	0	0	0	-558773.99021577	-2755860.868219364	156379.1943641498	-927048.9081489699	-851929.7337411637	0	0	241964.9688065904	-1779084.524742251	4653733.390231313	573098.8524505724	1297459.927276968	0	0
30.31666666666667	0	0	0	0	0.93	0	4.594144125593695e-49	0	0	2.426570649309934e-20	5.241540515187514e-23	0	0	0	4.594144125593695e-49	0	0	2.426570649309934e-20	5.24154051518751e-23	0	0	0	0	0	0	-558773.9858833419	-2755860.864599397	156379.2080446943	-927048.9375194032	-851929.7419726341	0	0	241964.9824899509	-1779084.523930397	4653733.391898239	573098.8639126383	1297459.922924141	0	0
30.33333333333333	0	0	0	0	0.93	0	4.594144125593695e-49	0	0	2.426570649309934e-20	5.241540515187514e-23	0	0	0	4.594144125593695e-49	0	0	2.426570649309934e-20	5.24154051518751e-23	0	0	0	0	0	0	-558773.9789538044	-2755860.857279504	156379.2180068271	-927048.9487560213	-851929.7317781324	0	0	241964.9940127298	-1779084.523697478	4653733.40928811	573098.9000262074	1297459.883639204	0	0
30.35	0	0	0	0	0.93	0	4.594144125593695e-49	0	0	2.426570649309934e-20	5.241540515187514e-23	0	0	0	4.594144125593695e-49	0	0	2.426570649309934e-20	5.24154051518751e-23	0	0	0	0	0	0	-558773.9691583826	-2755860.857390563	156379.2123463881	-927048.9346710714	-851929.7074241305	0	0	241964.982747446	-1779084.52461041	4653733.437910701	573098.9385321984	1297459.860988348	0	0
30.36666666666667	0	0	0	0	0.93	0	4.594144125593695e-49	0	0	2.426570649309934e-20	5.241540515187514e-23	0	0	0	4.594144125593695e-49	0	0	2.426570649309934e-20	5.24154051518751e-23	0	0	0	0	0	0	-558773.9641858359	-2755860.8659926	156379.2185073453	-927048.9381566693	-851929.7063711626	0	0	241964.9805521402	-1779084.520897108	4653733.443824827	573098.9638529711	1297459.852755626	0	0
30.38333333333333	0	0	0	0	0.93	0	4.594144125593695e-49	0	0	2.426570649309934e-20	5.241540515187514e-23	0	0	0	4.594144125593695e-49	0	0	2.426570649309934e-20	5.24154051518751e-23	0	0	0	0	0	0	-558773.958767669	-2755860.879544864	156379.2134060786	-927048.9242891631	-851929.7087996866	0	0	241964.9752274668	-1779084.527629662	4653733.467250504	573099.0130174272	1297459.850321141	0	0
30.4	0	0	0	0	0.93	0	4.594144125593695e-49	0	0	2.426570649309934e-20	5.241540515187514e-23	0	0	0	4.594144125593695e-49	0	0	2.426570649309934e-20	5.24154051518751e-23	0	0	0	0	0	0	-558773.9561491295	-2755860.89158321	156379.2097875176	-927048.9285323098	-851929.7087418588	0	0	241964.9674519967	-1779084.530335036	4653733.496331163	573099.0597067184	1297459.836005774	0	0
30.41666666666667	0	0	0	0	0.93	0	4.594144125593695e-49	0	0	2.426570649309934e-20	5.241540515187514e-23	0	0	0	4.594144125593695e-49	0	0	2.426570649309934e-20	5.24154051518751e-23	0	0	0	0	0	0	-558773.9561994291	-2755860.904938566	156379.1993408904	-927048.9180788738	-851929.7176897627	0	0	241964.9450849855	-1779084.538533277	4653733.528874008	573099.1036877924	1297459.827874376	0	0
30.43333333333333	0	0	0	0	0.93	0	4.594144125593695e-49	0	0	2.426570649309934e-20	1.293043785904516e-37	0	0	0	4.594144125593695e-49	0	0	2.426570649309934e-20	8.228460455756013e-38	0	0	0	0	0	0	-558773.9540249832	-2755860.909833939	156379.1988722367	-927048.9249991253	-851929.7265286272	0	0	241964.9612934951	-1779084.527032525	4653733.537018215	573099.1027034847	1297459.79875595	0	0
30.45	0	0	0	0	0.93	0	4.594144125593695e-49	0	0	2.426570649309934e-20	5.241540515187514e-23	0	0	0	4.594144125593695e-49	0	0	2.426570649309934e-20	5.24154051518751e-23	0	0	0	0	0	0	-558773.9615701141	-2755860.925414418	156379.179410992	-927048.9025245777	-851929.7189470655	0	0	241964.9572285031	-1779084.534061776	4653733.541682988	573099.1045631784	1297459.799057011	0	0
30.46666666666667	0	0	0	0	0.93	0	4.594144125593695e-49	0	0	2.426570649309934e-20	5.241540515187514e-23	0	0	0	4.594144125593695e-49	0	0	2.426570649309934e-20	5.24154051518751e-23	0	0	0	0	0	0	-558773.9689162733	-2755860.939584441	156379.1525953872	-927048.8972643685	-851929.7100579659	0	0	241964.9769074214	-1779084.551416709	4653733.507052792	573099.0810362615	1297459.827582998	0	0
30.48333333333333	0	0	0	0	0.93	0	0	0	0	0	0	0	0	0	0	0	0	0	0	0	0	0	0	0	0	-558773.9925197447	-2755860.924443377	156379.1214634794	-927048.9201218456	-851929.71681712	0	0	241965.0641574292	-1779084.568325387	4653733.32329473	573098.9056964377	1297460.031655808	0	0
30.5	0	0	0	0	0.93	0	3.445608094195272e-49	0	0	1.819927986982451e-20	-3.931155386390627e-23	0	0	0	3.445608094195272e-49	0	0	1.819927986982451e-20	-3.931155386390627e-23	0	0	0	0	0	0	-558773.9844429462	-2755860.928003365	156379.1306514872	-927048.9261598352	-851929.7326253693	0	0	241965.1226237448	-1779084.570780094	4653733.221815744	573098.7881122358	1297460.103318611	0	0
30.51666666666667	0	0	0	0	0.93	0	4.594144125593695e-49	0	0	2.426570649309934e-20	-3.931155386390627e-23	0	0	0	4.594144125593695e-49	0	0	2.426570649309934e-20	-3.931155386390627e-23	0	0	0	0	0	0	-558773.9901912162	-2755860.92741918	156379.1310743795	-927048.9206531988	-851929.7218775621	0	0	241965.1463132928	-1779084.583106688	4653733.178594207	573098.7770159133	1297460.138850132	0	0
30.53333333333333	0	0	0	0	0.93	0	0	0	0	0	0	0	0	0	0	0	0	0	0	0	0	0	0	0	0	-558773.9876911854	-2755860.929936025	156379.1359753188	-927048.9282632145	-851929.7219192151	0	0	241965.1770467447	-1779084.590964411	4653733.137206699	573098.7143201591	1297460.170729655	0	0
30.55	0	0	0	0	0.93	0	4.594144125593695e-49	0	0	2.426570649309934e-20	5.241540515187501e-23	0	0	0	4.594144125593695e-49	0	0	2.426570649309934e-20	5.241540515187501e-23	0	0	0	0	0	0	-558773.9804252158	-2755860.929136485	156379.1493581775	-927048.9349540039	-851929.7231888147	0	0	241965.1929642317	-1779084.597854203	4653733.121359701	573098.7047217871	1297460.184236845	0	0
